<svg version="1.1" id="Layer_1" xmlns="http://www.w3.org/2000/svg" xmlns:xlink="http://www.w3.org/1999/xlink" x="0px" y="0px"
	 width="100%" viewBox="0 0 800 800" enable-background="new 0 0 800 800" xml:space="preserve">
<path fill="#000000" opacity="1.000000" stroke="none" 
	d="
M586.694458,701.798218 
	C565.520325,713.978943 543.761169,724.091919 520.695068,730.911255 
	C500.275391,736.948181 479.398926,741.149231 458.151733,743.415222 
	C445.568237,744.757385 433.000824,746.082886 420.341461,746.179565 
	C396.496887,746.361694 372.928040,744.374939 349.408966,739.845215 
	C324.771210,735.100037 300.854218,728.391174 277.741333,718.821228 
	C223.540131,696.379150 179.327667,660.957764 143.136581,615.045898 
	C116.970108,581.851257 97.320023,545.205994 84.505646,505.006561 
	C78.951859,487.583954 75.618378,469.565491 72.590927,451.489258 
	C68.350792,426.172516 68.401756,400.884949 70.418526,375.393890 
	C73.403526,337.664642 83.435379,301.783722 97.760719,267.005798 
	C109.126175,239.413635 125.070099,214.433746 143.217514,190.856171 
	C163.581314,164.399033 187.617615,141.636002 214.929733,122.554771 
	C243.048950,102.909683 273.277802,87.073875 306.205811,77.019531 
	C337.531189,67.454536 369.544891,62.190159 402.433014,61.499748 
	C434.718689,60.821987 466.652832,63.348190 498.108429,70.149605 
	C520.243103,74.935638 541.628479,82.557846 562.217285,92.187920 
	C586.636658,103.609680 609.273193,117.993263 630.172913,134.877090 
	C660.744446,159.574387 686.056335,188.926056 706.322205,222.756012 
	C722.592346,249.916031 735.914185,278.299133 744.583069,308.714752 
	C751.285522,332.230713 756.057495,356.134064 757.534058,380.695435 
	C758.777710,401.381775 758.762329,422.023895 756.198425,442.508270 
	C752.849915,469.262024 747.076965,495.584930 737.702271,520.959717 
	C725.258911,554.640625 707.666748,585.502319 685.937195,614.034485 
	C662.808716,644.403564 634.956604,669.743713 603.462524,691.164062 
	C598.093384,694.815857 592.494995,698.130554 586.694458,701.798218 
M606.618042,657.081055 
	C620.937683,646.105713 633.822266,633.623291 646.091248,620.405396 
	C687.442810,575.855835 714.260315,523.900940 726.229309,464.313354 
	C729.706238,447.003662 732.086304,429.503204 732.582886,411.863037 
	C733.528748,378.259399 727.802185,345.416687 718.174927,313.450470 
	C704.653564,268.554626 682.304382,228.297821 651.090088,193.058731 
	C622.893005,161.225845 589.957764,135.611786 551.724609,117.050819 
	C533.104797,108.011505 513.349060,101.890388 493.141724,97.386009 
	C479.346466,94.310951 465.604095,90.635414 451.494110,89.533089 
	C429.569489,87.820251 407.615265,87.713554 385.611420,89.073410 
	C353.553802,91.054619 322.866913,98.789139 292.951111,109.900085 
	C266.648254,119.669136 243.193817,134.604645 220.818954,151.285645 
	C187.083633,176.436172 160.584213,208.098480 138.801376,243.809494 
	C127.846039,261.769806 119.972763,281.172211 112.899376,301.019012 
	C102.593391,329.936035 96.025833,359.582672 94.565308,390.120544 
	C93.355171,415.423065 95.634293,440.711761 100.694443,465.582764 
	C107.697029,500.001007 121.059036,532.166260 138.542404,562.391785 
	C156.166779,592.861206 178.995728,619.404663 205.536224,642.582947 
	C234.290756,667.694763 266.370972,687.250793 302.430908,700.234741 
	C331.598999,710.737183 361.482208,717.235962 392.465363,719.007935 
	C407.311462,719.857056 422.106140,719.827209 436.890228,718.623657 
	C455.784515,717.085388 474.673279,715.313599 493.190887,710.998779 
	C534.668335,701.334229 572.349548,683.614868 606.618042,657.081055 
z"/>
<path fill="#000000" opacity="1.000000" stroke="none" 
	d="
M218.841980,502.723999 
	C226.315079,500.668427 233.072830,497.830414 239.687531,494.678650 
	C242.599075,493.291382 245.319626,491.390533 244.326004,487.404541 
	C243.264297,483.145416 240.928604,482.089294 236.519318,483.672363 
	C212.388855,492.335846 188.052780,500.354462 163.236160,506.843475 
	C161.048965,507.415436 158.821182,508.229187 156.460892,507.840607 
	C156.156738,505.293121 158.109436,504.864441 159.464081,504.193604 
	C177.123642,495.447693 194.097916,485.636871 209.233002,472.872650 
	C214.418762,468.499146 220.723862,466.293152 226.974243,463.915863 
	C231.859848,462.057678 233.122833,458.022430 230.421494,454.509033 
	C228.356476,451.823242 225.456223,451.964447 222.653595,452.605438 
	C215.438889,454.255493 208.534180,456.837585 202.921265,461.789185 
	C189.238800,473.859467 173.868973,483.451508 158.341064,492.857025 
	C149.906494,497.966034 142.353561,504.265167 135.037170,510.853699 
	C130.950241,514.534058 128.851120,514.133911 127.005508,509.046204 
	C120.074059,489.938507 114.021790,470.628632 111.492035,450.304657 
	C110.465096,442.054291 108.932083,433.863739 108.810242,425.532776 
	C108.719810,419.349701 111.516090,417.101562 117.318069,418.868225 
	C135.985748,424.552338 155.089783,428.208130 174.235931,431.783539 
	C185.183487,433.827942 195.972183,436.802917 207.225616,436.627777 
	C211.915482,436.554779 216.539810,435.800018 220.829422,433.821747 
	C224.587769,432.088409 225.706161,428.324188 223.955078,424.594299 
	C223.222504,423.033875 222.187042,422.068237 220.472961,422.456879 
	C200.377228,427.013397 181.176041,420.873779 161.747787,417.556122 
	C154.206635,416.268402 146.709183,414.724854 139.191849,413.297729 
	C138.061295,413.083099 136.853394,413.036591 135.903976,411.533112 
	C137.443207,409.851929 139.564880,409.937714 141.599243,409.784973 
	C160.849365,408.339417 180.136154,407.235016 199.044632,402.891693 
	C204.440506,401.652222 209.983536,401.969971 215.475998,401.919250 
	C217.887909,401.896973 220.212860,401.476379 221.984879,399.834015 
	C225.437668,396.633850 223.761795,391.771912 218.760498,390.432129 
	C211.158051,388.395416 203.382523,388.919708 195.962723,390.627502 
	C173.667618,395.759186 150.853455,397.003601 128.333603,400.391541 
	C123.895576,401.059174 119.478256,401.866394 115.055473,402.632843 
	C109.502907,403.595093 107.336349,402.136017 107.801155,396.471130 
	C108.643379,386.206329 108.866737,375.900208 110.583344,365.680908 
	C113.146889,350.419739 115.909363,335.222809 120.074341,320.307556 
	C120.566711,318.544281 121.119469,316.794922 121.719650,315.065247 
	C124.282776,307.678619 128.081146,306.661682 134.173294,312.043579 
	C138.283813,315.674835 141.985168,319.764923 145.982193,323.530182 
	C150.736282,328.008606 156.228439,331.512299 161.742401,334.955536 
	C172.084320,341.413666 181.740723,348.732941 190.817886,356.899323 
	C199.595474,364.796234 209.778168,369.806030 221.914078,369.947113 
	C228.095474,370.019012 230.731720,365.910889 227.731949,360.573090 
	C227.040909,359.343414 226.503204,358.337219 226.772095,356.903503 
	C227.059937,355.368805 227.077667,353.656677 224.989044,353.479187 
	C222.785385,353.291870 222.175644,354.743195 222.308304,356.730377 
	C222.348404,357.331024 222.033844,357.955292 221.818893,358.822174 
	C215.570541,358.563141 210.220551,355.982788 205.623016,352.593018 
	C190.059998,341.118469 173.795486,330.700439 157.793701,319.884674 
	C155.280060,318.185699 152.822739,316.176331 151.414551,313.334930 
	C152.666580,312.306274 153.666260,312.651947 154.567627,313.017426 
	C167.209442,318.143005 180.338028,322.016571 192.567108,328.220978 
	C204.802277,334.428436 218.308502,335.880066 231.627151,337.878876 
	C234.379440,338.291931 236.776047,337.705780 238.389786,334.850250 
	C240.426315,331.246643 239.744644,328.968231 235.951569,327.379181 
	C232.685303,326.010895 229.259644,325.433441 225.806625,324.861572 
	C212.924362,322.728149 200.653503,318.601410 188.613480,313.624847 
	C172.599121,307.005585 155.788101,302.658783 139.537643,296.700928 
	C138.444962,296.300323 137.299896,296.039368 136.216080,295.618439 
	C130.787247,293.509918 129.913391,291.837402 132.082092,286.551880 
	C137.971817,272.197540 144.979736,258.406342 153.128082,245.188171 
	C157.941116,237.380493 162.897018,229.678497 168.604385,222.492493 
	C172.524506,217.556778 175.530579,217.837372 178.749634,223.448563 
	C182.063187,229.224487 184.925323,235.279602 188.511200,240.875336 
	C200.301727,259.274231 214.595276,275.833221 227.608658,293.336731 
	C232.329193,299.686005 238.575623,304.388947 245.860947,307.769623 
	C250.101944,309.737640 252.037018,307.570190 253.872437,304.472870 
	C255.875641,301.092407 254.020737,299.258087 251.218079,297.717072 
	C244.091522,293.798676 238.256653,288.482697 233.706833,281.703613 
	C223.660980,266.735565 210.403534,254.303772 200.220337,239.443649 
	C198.212845,236.514160 195.510406,233.848816 195.473495,229.489456 
	C199.512985,229.958649 201.736496,232.773697 204.295746,234.910446 
	C215.923798,244.618835 226.834641,255.225708 239.442383,263.705505 
	C248.553772,269.833710 258.963745,273.815521 267.785675,280.492249 
	C270.603271,282.624664 272.744629,280.638336 274.754578,278.761871 
	C276.913422,276.746338 276.488464,274.687225 274.937195,272.547607 
	C271.725464,268.117798 267.337341,264.887573 262.690430,262.432770 
	C242.227722,251.622971 224.547058,236.853516 205.924805,223.408386 
	C199.278946,218.610107 193.050461,213.404877 187.127411,207.779831 
	C184.209946,205.009140 183.810349,202.566483 186.896729,199.356598 
	C203.566391,182.019821 221.391937,166.029251 240.959091,152.014374 
	C241.499832,151.627090 242.088028,151.305862 242.655334,150.955856 
	C248.739029,147.202454 250.481140,147.621674 251.775436,154.522690 
	C255.784286,175.897263 264.446350,195.859955 270.198425,216.695953 
	C274.051147,230.651932 280.214752,243.499741 288.705170,255.216965 
	C292.841736,260.925690 295.842529,261.186523 300.945984,256.483826 
	C305.645905,252.152985 305.746704,250.886063 300.819946,246.654922 
	C295.227020,241.851700 291.196472,235.904404 288.629608,229.190018 
	C281.261353,209.916031 274.243469,190.507339 267.205231,171.108994 
	C266.389435,168.860550 265.362122,166.434738 266.387177,163.818085 
	C269.120911,163.495285 269.603180,165.864609 270.680420,167.334915 
	C277.691376,176.904129 282.766602,187.653000 289.054810,197.670349 
	C294.750458,206.743759 301.139893,215.228271 308.717438,222.796600 
	C309.998016,224.075653 311.429260,225.356079 313.035675,226.123657 
	C316.014679,227.547058 318.643005,226.199448 320.683472,224.065948 
	C322.820679,221.831345 320.801208,220.071808 319.442078,218.473068 
	C306.992645,203.828934 296.495361,187.810410 286.538696,171.436737 
	C280.857971,162.094833 272.594452,154.895264 266.289764,146.081665 
	C261.426453,139.283066 261.432281,138.617889 268.964020,134.747391 
	C297.792206,119.932755 328.323120,110.318733 360.238281,104.973495 
	C388.299011,100.273804 416.508209,99.269043 444.842316,101.772896 
	C447.325256,101.992302 449.810516,102.372704 452.245361,102.904266 
	C455.554474,103.626701 456.599731,104.615974 458.449707,108.230797 
	C454.941162,111.582405 450.144348,112.001907 445.830750,113.435028 
	C397.414825,129.520355 360.370575,159.029800 338.196014,205.578674 
	C331.560120,219.508774 326.396118,234.147736 325.056274,249.785233 
	C324.625885,254.808411 322.443787,258.240570 317.548187,260.520477 
	C303.532043,267.047913 292.628143,277.539368 282.597534,289.074677 
	C268.399170,305.402924 256.268250,322.959015 248.586075,343.390442 
	C239.958618,366.335907 236.192383,390.160522 237.551575,414.444397 
	C239.286057,445.433411 249.490524,473.737640 266.694092,499.830200 
	C281.065857,521.627747 300.540527,537.422974 322.396423,550.490234 
	C346.798126,565.079590 373.844116,570.060425 402.026306,568.811157 
	C427.805206,567.668457 451.746674,560.294617 473.621155,546.434570 
	C476.205963,544.796753 478.696838,542.683228 482.869293,542.819702 
	C482.092560,562.291016 475.936584,579.974243 466.285217,596.156616 
	C448.076843,626.686462 421.880798,648.156799 389.094666,661.298462 
	C387.833923,660.318298 387.835205,659.452820 388.276459,658.720093 
	C398.745544,641.336365 403.743439,622.169067 406.907104,602.358521 
	C407.754486,597.052185 407.896118,591.756775 407.893158,586.431702 
	C407.891388,583.290649 406.735107,580.606628 403.230957,580.452271 
	C399.832764,580.302612 398.976166,583.208069 398.409058,585.859070 
	C394.303040,605.052490 390.287323,624.265198 386.155243,643.452942 
	C385.539398,646.312622 385.094299,649.367065 382.465179,651.576721 
	C379.088379,649.844666 379.318634,646.501221 379.233978,643.752747 
	C378.740234,627.723633 375.665527,612.005737 373.749115,596.151733 
	C373.251526,592.035400 372.291260,587.968445 371.396759,583.911133 
	C371.154999,582.814758 370.472351,581.770874 369.822723,580.818420 
	C368.517914,578.905518 366.757019,577.730530 364.314941,578.203857 
	C361.587219,578.732422 361.102417,580.907043 361.074493,583.148682 
	C360.985321,590.300537 361.067352,597.415405 362.207916,604.544006 
	C364.440308,618.496704 366.157471,632.531189 368.286499,646.501587 
	C368.935364,650.759277 370.516174,654.874573 371.170898,659.131897 
	C372.191925,665.770630 370.430023,667.382751 364.068268,669.368042 
	C355.885468,671.921570 347.618164,671.194763 339.338867,671.277466 
	C336.512085,671.305725 333.682739,671.110107 330.934235,672.106140 
	C329.104279,672.769226 327.534241,673.638794 327.279327,675.745789 
	C327.031036,677.797852 328.187927,679.223389 329.757233,680.339905 
	C331.691803,681.716309 333.926239,682.395935 336.189880,682.986267 
	C352.148224,687.148010 368.293610,689.986572 384.787659,691.198547 
	C403.237579,692.554260 420.843353,689.822693 438.116730,683.275879 
	C449.181793,679.081970 460.710938,676.597717 472.758331,676.848755 
	C484.583282,677.095154 496.422272,676.825317 508.252319,676.620483 
	C518.577759,676.441711 528.898438,675.999268 539.223328,675.762939 
	C541.630005,675.707947 544.236511,675.367737 546.434692,678.104675 
	C542.409119,681.865906 537.391602,683.827820 532.565063,685.560059 
	C505.029694,695.442688 476.735748,702.047729 447.493896,704.309937 
	C438.377289,705.015259 429.296082,705.988708 420.144470,706.454956 
	C381.307281,708.433716 343.971893,701.288513 307.493561,688.650085 
	C300.893982,686.363586 294.451569,683.607361 287.997559,680.921570 
	C282.306091,678.553101 280.948395,676.011292 283.856323,670.424316 
	C288.769470,660.984619 294.204803,651.796570 299.795959,642.734253 
	C310.891022,624.750977 320.979340,606.079712 335.231750,590.208191 
	C338.046692,587.073486 339.709351,583.176758 340.625061,579.061340 
	C341.352203,575.793518 340.525269,573.100586 337.078186,571.755249 
	C333.683624,570.430420 332.220459,572.608887 330.864868,575.093323 
	C329.341949,577.884583 327.480225,580.436768 325.288574,582.748596 
	C311.329346,597.473145 302.570648,615.499573 293.268372,633.182129 
	C291.747650,636.072815 290.687256,639.287659 287.203339,641.928345 
	C286.123291,636.547302 287.461731,631.925659 288.729187,627.551270 
	C294.748016,606.778381 301.069733,586.093262 307.280334,565.375977 
	C307.710358,563.941528 308.309357,562.523315 308.490967,561.055664 
	C308.937592,557.446533 306.491486,555.499756 303.744629,554.185364 
	C300.973450,552.859314 299.918762,555.486267 298.810150,557.194031 
	C292.141327,567.466614 290.167725,579.459351 286.680969,590.888672 
	C281.622803,607.468933 277.725250,624.311646 275.863068,641.576721 
	C275.274658,647.032166 274.856903,652.505859 274.342529,657.969421 
	C274.249054,658.962097 274.131500,659.961121 273.913666,660.932190 
	C271.802582,670.341370 269.226593,671.804932 260.869690,667.121704 
	C244.681305,658.049683 230.181915,646.557068 215.950012,634.723022 
	C210.174149,629.920288 204.555588,624.949646 199.636688,619.270691 
	C196.448547,615.589966 196.836014,613.496582 200.791580,610.698425 
	C214.686249,600.869446 227.450287,589.637817 240.383102,578.628418 
	C247.635147,572.454895 255.108246,566.651489 263.297424,561.781250 
	C268.317322,558.795837 273.129852,555.510193 277.575256,551.705078 
	C280.012024,549.619385 282.098969,547.233887 283.362488,544.277161 
	C284.880402,540.725098 282.427765,538.710632 280.148468,536.677490 
	C277.643921,534.443359 276.244324,536.662170 274.750153,538.074707 
	C267.175446,545.235046 257.602264,549.539917 249.451233,555.893494 
	C237.222687,565.425415 226.079208,576.180969 214.467056,586.407532 
	C211.314041,589.184326 208.530624,592.473206 204.329788,593.869568 
	C203.354858,591.908142 204.492203,590.882507 205.261429,589.923523 
	C220.283920,571.195129 233.096466,550.887573 247.094528,531.428223 
	C250.134018,527.202820 253.624161,523.415649 257.583954,520.080811 
	C260.336914,517.762451 261.693665,515.560303 259.263397,512.034119 
	C256.691254,508.302185 254.095367,509.010193 250.780472,510.840546 
	C242.718521,515.291992 237.180847,522.282166 232.811600,529.906982 
	C223.506805,546.144836 211.943893,560.827820 201.839783,576.501099 
	C197.328323,583.499207 193.478577,590.924927 188.323944,597.506714 
	C184.690460,602.146057 182.445969,602.310120 178.919067,597.873352 
	C163.327591,578.259460 149.476303,557.511841 138.346512,535.013916 
	C137.830017,533.969910 137.327484,532.909363 136.937424,531.814087 
	C135.152725,526.802917 136.478729,524.319031 141.751968,523.037292 
	C155.655853,519.657776 169.557434,516.265930 183.491592,513.014709 
	C195.336761,510.250916 207.013580,506.945251 218.841980,502.723999 
M316.787598,165.941940 
	C327.786957,168.507187 338.489075,163.212494 340.505188,154.208099 
	C342.447876,145.531555 336.014130,135.793808 326.449493,132.934189 
	C318.494751,130.555893 309.907074,135.596481 306.586121,144.593109 
	C303.290344,153.521500 306.892487,161.587219 316.787598,165.941940 
M434.208771,576.648254 
	C430.946350,578.629578 428.531433,581.123352 428.314636,585.260498 
	C427.954376,592.135132 434.080444,600.079895 440.814697,601.286011 
	C447.117706,602.414917 456.120270,595.879211 457.585541,589.110657 
	C459.033508,582.422119 454.918060,576.484863 447.072083,573.901917 
	C442.550323,572.413391 438.606750,573.865417 434.208771,576.648254 
M255.028458,603.308289 
	C249.142990,599.827332 243.525101,600.586060 238.418839,604.770447 
	C233.505478,608.796753 233.472321,614.403748 234.856216,619.863403 
	C236.325348,625.659241 240.735413,628.408875 246.547699,629.097900 
	C252.850082,629.845032 258.614227,626.627991 261.066986,620.917358 
	C263.542725,615.153198 261.579010,608.905396 255.028458,603.308289 
M172.383942,555.039734 
	C175.994385,562.131226 183.414688,565.087463 190.846695,562.395264 
	C195.939133,560.550537 199.365860,553.751404 198.093155,548.017151 
	C196.463623,540.675171 189.796661,535.801453 183.222839,537.146545 
	C175.028381,538.823242 170.660370,545.637085 172.383942,555.039734 
M143.570770,351.053925 
	C135.890961,351.879883 130.212006,357.547699 130.485626,364.113373 
	C130.752548,370.518005 137.351074,376.700439 143.789474,376.578400 
	C150.434662,376.452393 156.238586,370.944122 156.644958,364.377808 
	C157.109894,356.864777 152.660019,352.024109 143.570770,351.053925 
M151.171432,450.989471 
	C149.307098,450.073486 147.290573,450.168549 145.310944,450.195465 
	C138.826828,450.283722 133.313431,456.291504 133.401062,463.102264 
	C133.486740,469.761414 138.307556,474.631348 145.079041,474.899323 
	C152.708588,475.201233 157.223938,471.323395 157.842163,464.123840 
	C158.311279,458.660858 156.414078,454.403992 151.171432,450.989471 
M244.764908,193.979050 
	C244.378799,193.243256 244.072128,192.450775 243.593964,191.780670 
	C240.007202,186.754318 235.541077,185.175232 230.700684,187.175735 
	C225.908783,189.156204 221.743698,196.597290 222.670654,201.521774 
	C223.751160,207.261993 227.888748,210.729996 233.883057,210.919708 
	C242.575027,211.194763 247.105072,204.613235 244.764908,193.979050 
M183.593170,267.914856 
	C180.080673,263.916077 175.645691,263.109131 170.907455,264.874481 
	C167.091705,266.296173 164.761292,269.343781 164.256119,273.502655 
	C163.630035,278.657166 165.875671,282.532501 170.640640,284.747620 
	C174.960754,286.755951 180.560928,285.780029 183.528549,282.501709 
	C187.520645,278.091614 187.649185,274.569244 183.593170,267.914856 
M334.456116,622.981445 
	C330.171906,624.487183 325.711884,625.841492 325.334991,631.491211 
	C325.078857,635.330688 329.187866,640.930542 333.783875,642.921082 
	C338.428741,644.932800 342.211182,643.007874 345.534393,639.890320 
	C348.849304,636.780640 349.232483,632.949036 347.585175,628.899353 
	C345.824036,624.569763 340.986359,622.229736 334.456116,622.981445 
M233.742233,481.414551 
	C236.106735,481.851776 237.646301,481.164032 237.869171,478.509857 
	C238.158798,475.060638 233.948029,469.345245 230.228439,468.335663 
	C228.004547,467.731964 225.826523,467.754486 224.712692,470.240723 
	C224.331818,471.090912 224.335846,472.189484 224.410919,473.155396 
	C224.854385,478.860962 226.547119,480.437592 233.742233,481.414551 
z"/>
<path fill="#000000" opacity="1.000000" stroke="none" 
	d="
M466.017395,338.305481 
	C470.064148,333.078857 475.347504,331.026917 481.160675,328.943085 
	C490.465118,325.607758 499.853485,321.815491 507.989532,316.091553 
	C516.263489,310.270660 524.927612,307.355377 535.015198,308.066193 
	C546.108704,308.847870 557.151611,309.485168 568.174194,311.482880 
	C576.625671,313.014587 582.724731,317.289764 587.316772,323.708527 
	C600.116211,341.599670 607.879150,361.616211 611.304688,383.370209 
	C614.824890,405.725525 615.212830,428.106140 612.245361,450.521637 
	C610.229126,465.751434 606.393005,480.605652 601.282410,495.048584 
	C590.548706,525.383301 575.815247,553.737061 556.436096,579.433167 
	C537.204163,604.934143 513.260254,625.533203 487.050446,643.646851 
	C464.122833,659.492126 438.737213,669.559204 411.976654,676.547119 
	C408.936188,677.341064 405.774902,677.775330 402.640778,678.069580 
	C400.739227,678.248169 398.291107,678.566650 397.522308,676.107483 
	C396.829498,673.891235 398.896332,672.887451 400.375549,671.924622 
	C408.883301,666.386902 417.656708,661.231506 425.941864,655.382507 
	C451.661774,637.225098 473.011841,615.083496 485.739227,585.851013 
	C491.740906,572.066284 494.684906,557.328918 495.764862,542.255249 
	C496.300690,534.776245 496.439667,527.369446 496.014771,519.851074 
	C495.380951,508.635284 499.001434,497.824341 501.154236,486.947327 
	C502.138123,481.976166 505.840424,477.442688 509.793854,473.789520 
	C514.806213,469.157837 516.316284,464.366760 514.064270,457.335114 
	C511.232239,448.492340 505.555359,441.578918 501.095825,433.837158 
	C496.700958,426.207642 492.301117,418.519592 487.499298,411.207245 
	C482.074799,402.946777 477.669067,393.888062 470.323486,386.871490 
	C464.356842,381.172150 459.616272,374.210480 451.530457,370.876740 
	C448.012543,369.426392 448.029694,366.468109 449.461273,362.882416 
	C452.175629,356.083649 455.401611,349.942047 462.289062,346.514526 
	C465.595184,344.869202 464.632721,341.254395 466.017395,338.305481 
z"/>
<path fill="#000000" opacity="1.000000" stroke="none" 
	d="
M330.048889,461.414886 
	C320.565216,461.617188 311.569489,461.716949 302.583405,462.066132 
	C298.770935,462.214294 293.681488,462.476990 293.724060,467.251648 
	C293.767120,472.086212 299.133240,471.372040 302.485718,471.557892 
	C312.635071,472.120605 322.794800,471.541962 332.955017,471.188721 
	C347.927795,470.668152 362.913300,471.978180 377.902069,471.066620 
	C382.400940,470.793030 386.457245,471.820862 386.014069,477.834229 
	C385.904541,479.320465 386.931000,479.713684 388.044464,480.253387 
	C390.931427,481.652740 394.013885,482.143066 397.255951,482.806732 
	C389.529449,483.870880 382.379974,487.302490 374.464661,487.275543 
	C361.134369,487.230194 347.803619,487.335510 334.473083,487.345947 
	C332.105682,487.347809 329.858978,487.585846 327.751892,488.846741 
	C325.923523,489.940826 324.372620,491.234009 324.571808,493.497498 
	C324.761749,495.655701 326.241455,497.027557 328.199768,497.903015 
	C329.933136,498.677917 331.761505,498.720947 333.594055,498.700439 
	C362.909271,498.372620 392.224640,498.053192 421.538849,497.649384 
	C423.493805,497.622437 425.495361,497.109619 427.376221,496.511566 
	C429.967926,495.687469 430.835663,493.655914 430.649445,491.013397 
	C430.461609,488.347382 428.937134,487.312378 426.466766,486.966705 
	C421.718719,486.302338 416.968018,485.557281 411.914612,482.020416 
	C421.994232,479.519135 428.581146,471.333191 438.891449,471.146118 
	C443.910797,471.055054 447.459534,467.987457 449.473053,463.209534 
	C451.052399,459.461914 455.500092,457.431976 455.400269,452.602478 
	C459.744629,453.095428 461.457581,456.287140 463.010681,458.953583 
	C473.500366,476.962830 481.573120,495.813385 482.253296,517.110718 
	C482.652069,529.596619 482.843750,529.840637 471.260590,534.711121 
	C459.296661,539.741699 447.877686,545.974121 435.533325,550.181274 
	C406.623474,560.033997 377.957855,558.937317 349.482208,548.711670 
	C305.872711,533.051270 277.204376,502.001617 260.608643,459.683380 
	C245.865906,422.090271 247.573822,384.150635 261.684113,346.526825 
	C270.657898,322.599182 284.891876,302.465271 304.397858,286.032043 
	C309.202301,281.984497 314.235016,278.232758 320.052124,276.105682 
	C321.826630,277.731873 321.911285,279.465454 321.850647,281.089691 
	C321.448669,291.856201 323.864075,302.260773 325.804382,312.725494 
	C326.519348,316.581482 325.960388,318.185333 321.621887,320.701752 
	C313.322449,325.515656 304.162537,330.442352 300.749176,340.993042 
	C298.398010,348.260712 295.337677,355.319580 292.253326,362.321564 
	C290.452728,366.409271 291.261017,369.006439 294.826660,371.693237 
	C303.071930,377.906189 308.263428,386.599091 312.802979,395.650635 
	C314.261963,398.559662 313.952057,401.646729 312.768951,404.845947 
	C310.866455,409.990356 312.262451,412.264313 317.812439,413.170502 
	C325.668945,414.453247 333.267517,416.786469 341.350037,417.374634 
	C348.020355,417.860046 354.254883,421.574005 360.237457,424.854767 
	C362.302643,425.987305 363.914215,428.215027 363.009583,430.739655 
	C362.053650,433.407532 359.876801,434.440796 356.787140,434.732513 
	C338.680939,436.441956 320.523102,435.807587 302.393799,436.330383 
	C300.927551,436.372650 299.444611,436.792542 298.024109,437.218994 
	C296.337646,437.725281 294.972198,438.779694 294.836945,440.665222 
	C294.695953,442.630341 295.604248,444.208069 297.273865,445.298859 
	C299.170319,446.537903 301.302032,446.776520 303.499542,446.767151 
	C325.818176,446.672058 348.143768,447.272430 370.450745,445.932892 
	C373.273193,445.763397 375.134827,444.630829 376.965485,441.396088 
	C377.179138,447.913879 381.453644,449.725586 385.869476,450.762848 
	C389.128326,451.528351 390.523499,453.534973 391.844238,456.141418 
	C393.477325,459.364258 392.394989,460.933624 389.025879,461.104950 
	C385.367157,461.291046 381.698120,461.323547 378.033325,461.333801 
	C362.202515,461.378082 346.371582,461.389709 330.048889,461.414886 
M434.598022,512.815369 
	C431.958374,512.827393 429.303131,513.032593 426.681549,512.820923 
	C404.873322,511.060242 383.097870,513.289734 361.305756,513.287415 
	C360.476715,513.287292 359.623474,513.306396 358.823029,513.493896 
	C355.982849,514.159363 354.579346,516.263184 354.510803,518.921082 
	C354.440979,521.627380 356.686432,522.351501 358.944489,522.730896 
	C364.385620,523.645081 369.878113,524.069092 375.366577,523.611328 
	C389.668274,522.418701 403.991272,523.295410 418.299835,522.968506 
	C422.627655,522.869690 426.957397,522.829041 431.283081,522.673218 
	C433.978210,522.576172 436.212555,521.358887 437.285217,518.875854 
	C438.287201,516.556274 436.927765,514.731812 434.598022,512.815369 
z"/>
<path fill="#000000" opacity="1.000000" stroke="none" 
	d="
M449.649048,242.081299 
	C445.909668,238.951950 445.804382,234.915634 445.770081,230.915817 
	C445.740143,227.422699 448.415466,227.631699 450.749512,227.633362 
	C462.573517,227.641785 474.397552,227.733810 486.221527,227.721649 
	C521.360107,227.685516 556.499146,227.700455 591.637085,227.524780 
	C613.111450,227.417404 634.584167,226.988998 656.057739,226.720215 
	C661.778503,226.648605 668.372009,232.544067 669.029541,238.144989 
	C669.222961,239.792603 668.373962,240.605621 667.170288,241.313324 
	C665.504578,242.292664 663.652832,242.206085 661.822388,242.221268 
	C635.515747,242.439468 609.209229,242.802826 582.902344,242.839066 
	C540.288025,242.897781 497.677124,241.741394 455.059692,242.396179 
	C453.398285,242.421692 451.734253,242.278214 449.649048,242.081299 
z"/>
<path fill="#000000" opacity="1.000000" stroke="none" 
	d="
M581.845398,254.651382 
	C606.453735,253.303467 630.607178,253.874649 654.749817,253.626419 
	C660.237793,253.569992 665.759583,253.377487 671.195862,252.692322 
	C676.554932,252.016846 679.442932,254.257080 681.670105,258.890594 
	C685.596680,267.059601 685.094727,268.191772 676.036987,268.257141 
	C664.710815,268.338867 653.381348,268.171722 642.057617,268.362488 
	C623.249939,268.679352 604.445618,268.813354 585.639221,268.358429 
	C577.344666,268.157745 569.453857,269.500366 562.317322,274.136353 
	C559.915710,275.696472 557.256958,276.456543 554.261047,275.247101 
	C532.430725,266.434479 509.632507,263.658997 486.256958,264.337921 
	C478.935516,264.550537 471.600342,264.335144 464.272095,264.254822 
	C457.266510,264.178040 456.042542,263.129822 454.115509,255.580612 
	C456.707611,253.530762 459.890076,253.763901 462.972565,253.727646 
	C492.116791,253.384735 521.232727,255.377029 550.383423,254.759613 
	C560.706604,254.540955 571.037231,254.678024 581.845398,254.651382 
z"/>
<path fill="#000000" opacity="1.000000" stroke="none" 
	d="
M581.000000,201.800842 
	C599.498352,201.896317 617.487366,201.637665 635.467529,200.712677 
	C641.356445,200.409729 648.462341,205.883347 649.955627,211.417679 
	C650.480774,213.363983 649.901978,214.610168 647.990967,215.341599 
	C645.918152,216.134949 643.778320,216.279449 641.602783,216.280075 
	C579.103149,216.297974 516.603516,216.327530 454.103912,216.317535 
	C448.395142,216.316620 446.765625,214.668793 447.152710,209.806168 
	C447.740448,202.423325 449.839691,200.124756 455.562836,201.030365 
	C465.681458,202.631500 475.858612,201.841507 486.003571,201.873642 
	C517.501953,201.973404 549.001160,201.846573 581.000000,201.800842 
z"/>
<path fill="#000000" opacity="1.000000" stroke="none" 
	d="
M685.482605,480.642059 
	C665.946960,481.368225 646.811279,479.173706 627.752197,481.599579 
	C623.331177,482.162262 621.388977,480.208435 622.584229,475.803711 
	C625.150146,466.347992 628.760010,457.499847 627.482056,446.940247 
	C626.486755,438.715668 629.954529,437.398254 638.482056,438.091827 
	C656.431824,439.551727 674.419006,438.592896 692.390564,438.644012 
	C698.883667,438.662506 705.378967,438.535126 711.869385,438.665405 
	C716.692444,438.762207 717.758057,440.213745 716.959045,444.891968 
	C715.393127,454.060303 715.393311,453.982574 706.277649,453.962708 
	C684.801514,453.915894 663.325134,453.950195 641.848877,453.954529 
	C641.183105,453.954651 640.515198,453.957031 639.851990,454.007172 
	C636.141602,454.287476 631.643555,453.442535 631.461914,459.238708 
	C631.279846,465.051453 635.726013,464.856506 639.498291,464.871704 
	C660.284302,464.955505 681.070923,464.885986 701.857300,464.864838 
	C703.688416,464.862976 705.525635,464.727661 707.349426,464.834259 
	C711.036987,465.049805 712.935120,466.864807 712.031921,470.720428 
	C711.464050,473.144928 710.793335,475.556061 709.986145,477.910583 
	C709.259094,480.031403 707.521851,481.347412 705.358154,480.937836 
	C698.874512,479.710449 692.393066,481.521820 685.482605,480.642059 
z"/>
<path fill="#000000" opacity="1.000000" stroke="none" 
	d="
M604.187500,534.770752 
	C601.479309,533.910400 601.487427,532.041016 601.854065,530.187073 
	C602.108215,528.901978 602.517761,527.547485 603.228943,526.468689 
	C608.967834,517.764404 613.587402,508.653259 615.372192,498.197784 
	C616.243469,493.093719 620.585388,491.963287 624.991943,492.213531 
	C644.792480,493.338135 664.572571,491.205994 684.366394,491.986298 
	C689.679688,492.195801 694.997375,492.301697 700.313782,492.418915 
	C704.144653,492.503418 706.076111,493.867188 704.308044,497.977814 
	C703.849731,499.043335 703.487427,500.166687 703.224487,501.296814 
	C702.164246,505.854126 699.645874,507.597046 694.690430,507.532288 
	C672.220337,507.238617 649.744568,507.399353 627.270996,507.336884 
	C624.021790,507.327850 620.972412,507.530823 618.525574,510.062744 
	C616.931030,511.712677 615.793091,513.460632 616.453186,515.845520 
	C617.184998,518.489685 619.375244,518.798401 621.610535,518.806335 
	C637.089783,518.861450 652.569275,518.905396 668.048645,518.901184 
	C674.873413,518.899292 681.700195,518.645813 688.522400,518.747681 
	C694.495850,518.836853 695.174866,520.605103 693.347900,526.157288 
	C691.186707,532.725281 687.444458,534.667114 680.490417,534.517761 
	C657.362244,534.020935 634.215820,534.362488 611.076416,534.418213 
	C608.919983,534.423401 606.764282,534.680725 604.187500,534.770752 
z"/>
<path fill="#000000" opacity="1.000000" stroke="none" 
	d="
M485.016541,176.627457 
	C514.509827,176.630905 543.507080,176.756027 572.502258,176.567871 
	C585.485535,176.483627 598.465942,175.802124 611.445312,175.327484 
	C616.027710,175.159927 625.674133,181.428665 627.397827,185.960632 
	C628.548706,188.986435 625.923157,189.470840 624.175781,189.759842 
	C619.754883,190.491043 615.262512,191.197754 610.799194,191.195145 
	C587.642456,191.181671 564.481750,190.819763 541.331482,190.740875 
	C520.019287,190.668259 498.690033,191.159241 477.366333,190.990143 
	C471.875824,190.946625 466.388885,190.554184 460.898010,190.412048 
	C457.161255,190.315308 456.374390,188.316208 457.169800,185.096558 
	C459.204742,176.860046 463.048309,174.353210 471.073181,176.107391 
	C475.529846,177.081573 480.040436,176.383362 485.016541,176.627457 
z"/>
<path fill="#000000" opacity="1.000000" stroke="none" 
	d="
M686.703491,295.023346 
	C662.583801,295.134857 638.932373,295.270630 615.280884,295.276978 
	C609.938599,295.278412 604.642944,295.513672 599.347839,296.219788 
	C597.107483,296.518585 594.892517,297.082611 593.494690,298.710907 
	C590.486633,302.214813 587.577026,301.633057 584.423523,299.169159 
	C578.393188,294.457520 572.352539,289.758911 566.341003,285.023407 
	C565.435547,284.310150 564.529785,283.508759 564.580566,282.078949 
	C565.879150,280.327454 567.897400,280.890076 569.604248,280.856384 
	C577.764221,280.695251 585.927795,280.731934 594.089355,280.634918 
	C625.066589,280.266663 656.043579,279.875977 687.020630,279.488098 
	C691.758789,279.428772 697.942383,288.212311 695.749756,292.238220 
	C693.909851,295.616516 690.135254,294.353271 686.703491,295.023346 
z"/>
<path fill="#000000" opacity="1.000000" stroke="none" 
	d="
M346.989899,275.986206 
	C341.886505,273.310974 339.900513,277.253296 336.996674,281.393402 
	C335.214386,273.585785 335.144989,267.431976 337.332092,261.320435 
	C339.358459,261.330078 339.567596,262.635376 339.943756,263.672516 
	C340.537964,265.311035 341.164032,266.916565 343.292480,266.716705 
	C345.239563,266.533844 346.213776,265.007843 346.574585,263.369476 
	C348.109314,256.401337 352.105896,252.712250 359.472656,252.720032 
	C362.120148,252.722824 363.844940,250.517014 365.595062,248.728210 
	C371.631683,242.558258 378.127960,239.821304 387.134674,242.943726 
	C392.503693,244.805054 397.849640,246.333221 402.457275,249.690887 
	C405.792175,252.121078 407.563660,255.389526 406.478577,259.645355 
	C404.393372,267.823456 402.998230,269.207855 396.997070,269.958466 
	C392.379730,270.536011 387.952301,271.714752 383.946594,274.307678 
	C380.603607,276.471619 376.874756,277.153198 372.947144,276.086090 
	C367.952362,274.729034 363.125336,274.907288 358.355408,277.162720 
	C354.573730,278.950867 350.879242,278.052307 346.989899,275.986206 
z"/>
<path fill="#000000" opacity="1.000000" stroke="none" 
	d="
M516.235168,165.384399 
	C503.625732,166.859863 491.484070,165.545868 479.346802,165.219360 
	C474.934448,165.100632 473.600250,162.070129 476.813538,158.937515 
	C483.475281,152.442993 490.172424,145.748077 501.148956,149.560364 
	C511.293701,153.083771 521.963318,151.401901 532.406372,151.522354 
	C541.712891,151.629730 551.027161,151.027573 560.338623,150.762329 
	C564.330322,150.648605 568.305664,150.675430 572.289124,150.025131 
	C582.503906,148.357590 590.198975,153.652435 597.556396,159.638489 
	C598.449036,160.364761 599.314453,161.432678 598.835022,162.675583 
	C598.111267,164.551758 596.198669,164.666443 594.600525,164.747833 
	C584.124084,165.281540 573.642761,166.036209 563.160889,166.071320 
	C547.674072,166.123215 532.185486,165.636154 516.235168,165.384399 
z"/>
<path fill="#000000" opacity="1.000000" stroke="none" 
	d="
M690.994629,321.420929 
	C671.021179,321.406891 651.546082,321.488281 632.072876,321.333801 
	C624.545898,321.274109 617.120361,321.635559 609.838989,323.655823 
	C607.712341,324.245880 605.336731,324.936340 603.705933,323.113983 
	C599.749084,318.692291 596.199951,313.940918 593.662048,307.957703 
	C598.515442,305.768188 603.239929,306.624176 607.721985,306.779755 
	C636.996155,307.796143 666.260925,306.427887 695.529419,306.650909 
	C701.798218,306.698669 706.786926,312.029449 706.235779,318.209961 
	C706.022888,320.597748 704.450684,321.266022 702.476990,321.322388 
	C698.817932,321.426971 695.155090,321.396454 690.994629,321.420929 
z"/>
<path fill="#000000" opacity="1.000000" stroke="none" 
	d="
M712.238647,344.834869 
	C710.996216,348.993103 707.808777,348.274078 705.111450,348.280212 
	C684.149719,348.327972 663.187500,348.344696 642.226013,348.255280 
	C635.880493,348.228241 629.629517,348.707275 623.397583,349.942719 
	C616.751770,351.260254 615.848511,350.639221 613.326660,344.307495 
	C608.768066,332.861969 608.957520,332.537933 621.331726,333.035431 
	C647.601074,334.091644 673.861389,332.304413 700.133667,332.875153 
	C711.182678,333.115143 711.556885,333.096710 712.238647,344.834869 
z"/>
<path fill="#000000" opacity="1.000000" stroke="none" 
	d="
M642.248230,375.240051 
	C636.366272,374.436981 632.690002,377.493866 629.473755,381.103424 
	C625.242981,378.433533 620.392090,367.661255 621.122925,363.146484 
	C621.378540,361.567627 622.378418,361.001312 623.779968,360.609100 
	C626.874878,359.743073 630.028748,359.728210 633.192383,359.725189 
	C656.495728,359.702850 679.799011,359.682892 703.102356,359.660706 
	C704.267517,359.659607 705.462952,359.813049 706.593018,359.609619 
	C716.322510,357.857971 716.002258,361.335938 717.050415,370.155243 
	C717.612793,374.886597 713.565796,375.129608 710.124390,375.127075 
	C699.804871,375.119476 689.485291,374.949341 679.165894,374.966217 
	C667.015076,374.986084 654.864502,375.135437 642.248230,375.240051 
z"/>
<path fill="#000000" opacity="1.000000" stroke="none" 
	d="
M525.906555,629.894104 
	C530.929321,623.196167 537.249756,622.255615 544.989624,622.720764 
	C566.562805,624.017212 588.217896,622.576111 609.815979,623.884460 
	C611.143738,623.964905 612.480957,623.892883 613.808228,623.977905 
	C616.157410,624.128479 618.841797,624.223572 619.830566,626.681396 
	C620.842163,629.196045 618.039734,630.260132 616.877747,631.956970 
	C611.575745,639.699219 604.370056,640.196411 595.495361,639.731506 
	C575.575439,638.687927 555.570435,639.275146 535.600037,639.184998 
	C533.271179,639.174438 530.929199,639.215271 528.617615,638.986694 
	C526.011963,638.728943 522.749451,638.861572 521.777405,635.910767 
	C520.820618,633.006531 523.986938,631.846680 525.906555,629.894104 
z"/>
<path fill="#000000" opacity="1.000000" stroke="none" 
	d="
M568.690430,665.297607 
	C544.275696,665.252258 520.325928,665.257751 496.377167,665.106201 
	C492.228302,665.079956 487.731873,665.487305 483.888885,661.030151 
	C491.587036,655.606201 497.780457,649.281189 508.239380,649.966614 
	C519.488525,650.703857 530.847046,650.123230 542.142883,649.708923 
	C556.298828,649.189697 570.384277,650.735474 584.515808,650.719482 
	C586.164551,650.717590 587.871948,650.810242 589.176514,653.358032 
	C583.538269,658.879333 577.922180,664.523071 568.690430,665.297607 
z"/>
<path fill="#000000" opacity="1.000000" stroke="none" 
	d="
M714.435730,386.606934 
	C720.965759,388.040405 719.031799,392.916656 718.987122,396.753601 
	C718.941162,400.690277 716.165771,401.395142 712.736816,401.341095 
	C689.434387,400.973938 666.130676,400.780670 642.826233,401.259186 
	C639.493896,401.327606 636.205505,401.486847 632.911987,402.149902 
	C629.288574,402.879425 627.143433,401.248657 626.880005,397.442719 
	C626.834045,396.778381 626.810486,396.112488 626.781189,395.447083 
	C626.295471,384.395264 626.290955,384.437683 637.220947,385.629272 
	C649.164246,386.931305 661.110291,386.869873 673.110291,386.147614 
	C686.740112,385.327301 700.397156,385.928345 714.435730,386.606934 
z"/>
<path fill="#000000" opacity="1.000000" stroke="none" 
	d="
M584.621460,570.627319 
	C609.936890,572.459595 634.915161,569.652954 659.825745,571.693054 
	C665.711121,572.175049 666.374939,573.631104 663.583313,578.842102 
	C660.283997,585.000793 656.040527,587.989014 648.501953,587.445068 
	C625.247131,585.767273 601.919006,586.373413 578.616638,586.262085 
	C577.121460,586.254944 575.612610,586.195129 574.135254,585.984009 
	C570.770325,585.503357 569.831848,583.908875 571.807739,580.865173 
	C574.876770,576.137695 577.322021,570.715759 584.621460,570.627319 
z"/>
<path fill="#000000" opacity="1.000000" stroke="none" 
	d="
M604.114380,544.746399 
	C617.082153,544.823975 629.566406,544.812561 642.048706,544.965454 
	C653.526428,545.106079 665.003418,545.368958 676.477661,545.688354 
	C681.402161,545.825500 682.376892,547.623657 680.138184,552.008850 
	C679.230835,553.786194 678.187439,555.493774 677.273621,557.268005 
	C675.803589,560.122192 673.645325,560.978333 670.356445,560.852112 
	C646.570801,559.939636 622.777527,559.977234 598.984863,560.768127 
	C595.483093,560.884521 590.778564,562.599182 589.211121,558.308594 
	C587.616150,553.942810 590.746887,549.922791 593.670776,546.782227 
	C596.255371,544.006104 600.139099,544.664551 604.114380,544.746399 
z"/>
<path fill="#000000" opacity="1.000000" stroke="none" 
	d="
M630.036865,614.166992 
	C617.511108,612.645081 605.334656,613.006531 593.206604,612.484436 
	C580.901794,611.954712 568.556152,612.388489 556.228577,612.351929 
	C554.111023,612.345642 551.619019,612.810486 550.348083,610.546936 
	C548.990601,608.129395 551.376465,606.677673 552.290344,604.822144 
	C555.309082,598.693237 560.393127,597.493591 566.766418,597.568542 
	C589.753052,597.838684 612.744507,597.697021 635.734131,597.714294 
	C636.733398,597.715027 637.735962,597.705017 638.731323,597.777283 
	C641.104065,597.949402 643.644165,598.236938 644.692078,600.667480 
	C645.661804,602.916687 643.540710,604.405945 642.269043,605.755859 
	C638.915710,609.315796 637.183777,615.291809 630.036865,614.166992 
z"/>
<path fill="#000000" opacity="1.000000" stroke="none" 
	d="
M719.200806,419.867188 
	C717.664978,427.396667 717.664978,427.352936 710.656433,427.348480 
	C689.354858,427.334961 668.053040,427.304565 646.752014,427.414032 
	C642.609802,427.435303 638.450500,427.904236 634.335632,428.444763 
	C630.189453,428.989410 628.384094,427.176270 628.387634,423.234955 
	C628.389648,421.079773 628.502441,418.916351 628.715820,416.771637 
	C629.072876,413.181946 631.106934,411.350708 634.741638,411.670258 
	C661.162048,413.993042 687.614258,412.257080 714.051819,412.322235 
	C719.123779,412.334747 719.551453,415.573029 719.200806,419.867188 
z"/>
<path fill="#000000" opacity="1.000000" stroke="none" 
	d="
M554.635010,133.292389 
	C556.496155,134.664597 559.010681,135.448929 558.672180,137.710953 
	C558.283508,140.308228 555.468994,140.392456 553.455139,140.690826 
	C544.870361,141.962646 536.231567,141.326782 527.613525,141.023361 
	C523.640381,140.883484 519.662048,140.609085 515.713562,140.156189 
	C513.523743,139.904999 510.993591,140.146072 509.517212,137.806229 
	C521.236328,127.864937 539.516541,122.600899 554.635010,133.292389 
z"/>
<path fill="#000000" opacity="1.000000" stroke="none" 
	d="
M512.816650,117.834145 
	C514.959290,118.879829 515.396729,120.177681 513.463135,121.190941 
	C511.213196,122.369957 509.077393,124.706596 506.215088,123.367050 
	C504.835846,122.721558 505.227173,121.071915 505.731567,119.779480 
	C507.104126,116.262741 509.849030,117.213112 512.816650,117.834145 
z"/>
</svg>